<?xml version="1.0" standalone="no"?>
<!DOCTYPE svg PUBLIC "-//W3C//DTD SVG 20010904//EN"
 "http://www.w3.org/TR/2001/REC-SVG-20010904/DTD/svg10.dtd">
<svg version="1.0" xmlns="http://www.w3.org/2000/svg"
 width="225.000000pt" height="225.000000pt" viewBox="0 0 225.000000 225.000000"
 preserveAspectRatio="xMidYMid meet">
<metadata>
Created by potrace 1.10, written by Peter Selinger 2001-2011
</metadata>
<g transform="translate(0.000000,225.000000) scale(0.100000,-0.100000)"
fill="#000000" stroke="none">
<path d="M1040 1964 c-14 -2 -52 -9 -85 -15 -144 -26 -316 -118 -426 -228
-108 -109 -197 -272 -230 -426 -17 -77 -17 -263 0 -340 71 -328 328 -585 656
-656 77 -17 263 -17 340 0 277 60 515 261 613 519 43 111 56 183 56 307 0 124
-13 196 -55 306 -95 247 -307 436 -569 509 -72 20 -246 34 -300 24z m256 -84
c455 -109 712 -574 559 -1013 -28 -82 -88 -185 -144 -249 l-41 -47 -30 28
c-17 15 -84 60 -151 100 -66 40 -127 84 -136 97 -25 39 -9 92 42 139 68 62 74
84 70 275 -2 139 -6 174 -24 220 -57 150 -166 201 -367 172 -131 -18 -213 -71
-261 -170 -27 -55 -28 -63 -30 -222 -2 -190 4 -213 72 -275 51 -47 67 -100 42
-139 -9 -13 -70 -57 -136 -97 -67 -40 -134 -85 -151 -100 l-30 -28 -41 47
c-154 175 -220 429 -173 660 87 424 515 702 930 602z m-53 -341 c51 -14 100
-59 127 -116 26 -56 36 -166 22 -241 -5 -29 -6 -55 -1 -58 13 -8 11 -69 -3
-98 -6 -14 -19 -28 -28 -31 -44 -14 -98 -138 -85 -195 9 -40 73 -96 185 -162
52 -31 110 -69 128 -85 l33 -28 -68 -45 c-86 -56 -219 -107 -320 -121 -194
-28 -416 28 -571 144 l-33 25 53 40 c29 21 90 61 135 87 45 27 99 66 120 87
34 34 38 45 37 87 -1 60 -38 138 -75 160 -16 9 -33 27 -38 41 -5 14 -9 89 -10
168 -1 166 13 216 79 276 42 38 79 52 165 65 85 12 105 12 148 0z m-626 -992
c-16 -35 -25 -34 -56 6 -12 15 -12 17 1 12 8 -3 25 -2 39 3 31 12 31 11 16
-21z m1070 17 c14 6 14 4 2 -11 -26 -33 -49 -43 -49 -21 0 6 -7 20 -17 30 -15
17 -15 18 16 7 17 -6 39 -8 48 -5z"/>
</g>
</svg>
